<svg xmlns="http://www.w3.org/2000/svg" width="200" height="124" viewBox="0 0 200 124"><path d="M9.253,10.181c3.164-.123,10.881-.372,14.8-1.244-.128,1.618-.381,6.595-.381,16.049v4.23c3.543-2.862,6.454-4.355,10-4.355a10.47,10.47,0,0,1,9.11,4.6,19.263,19.263,0,0,1,2.531,10.078c0,11.569-5.567,18.163-16.829,18.163a21.519,21.519,0,0,1-8.857-2.116c-1.518.5-3.543,1.493-5.567,2.116l-.634-.374c.128-3.36.128-9.7.128-18.289V23.119c0-3.981-.128-6.718-.253-9.081-.128-1.618-.506-1.867-4.3-1.867Zm19.232,45.16c4.3,0,6.326-5.1,6.326-14.557a20.251,20.251,0,0,0-1.771-9.206,4.571,4.571,0,0,0-4.049-2.488,5.844,5.844,0,0,0-4.682,2.737c-.632.872-.885,1.618-.885,11.445,0,8.087.381,8.336.887,9.331A4.558,4.558,0,0,0,28.485,55.341Zm38.97,1.618c-2.658,0-5.314-.251-9.49-.251-4.427,0-6.579.251-8.729.251V54.844c3.543-.125,4.049-.746,4.176-2.116.126-1.493.253-3.856.253-7.713V37.053c0-3.235,0-5.846-.128-6.967s-.634-1.493-3.923-1.367V26.6c4.429-.372,9.743-.5,14.045-1.367-.128,1.618-.253,4.6-.253,11.445v8.585c0,3.981.128,5.723.253,7.464s.634,1.99,3.8,2.363ZM57.964,10.8c3.292,0,5.189,1.867,5.189,5.225,0,2.862-2.152,4.853-5.442,4.853a4.677,4.677,0,0,1-4.933-4.853A4.971,4.971,0,0,1,57.966,10.8Zm12.78-.623A94.841,94.841,0,0,0,84.537,8.937q-.257,7.711-.255,15.426V39.915c2.4-.623,7.592-6.843,9.616-10.45.381-.746.381-1.121-.632-1.121L90.482,28.1V25.982c4.682.125,9.49-.125,14.3-.374v2.116c-3.543.374-4.936.623-6.328,1.742a58.659,58.659,0,0,0-6.073,6.22c1.518,3.111,7.847,14.557,10.25,17.666a3.549,3.549,0,0,0,3.164,1.493l1.769.125-.126,2.114a95.371,95.371,0,0,0-14.045.746c-1.518-3.483-6.073-11.943-7.464-14.557-.759-1.367-1.14-1.865-1.646-1.742,0,5.1-.126,7.59.128,11.2.128,1.618.506,2.116,3.923,2.239v2.116c-2.405,0-4.936-.249-9.11-.249-4.936,0-7.085.249-8.984.249V54.967c3.29-.123,3.8-.744,3.923-1.99.126-1.493.251-4.727.251-11.2V25.733c0-5.1,0-8.957-.126-12.192q0-1.12-1.518-1.121H70.617ZM40.253,87.687C38.1,94.4,33.927,97.64,26.967,97.64c-5.948,0-9.743-1.618-12.4-5.1-2.024-2.612-3.037-6.469-3.037-10.822,0-9.58,5.948-16.919,16.829-16.919,6.579,0,11.387,2.986,11.387,7.839,0,3.358-2.784,4.725-5.061,4.725a5.819,5.819,0,0,1-2.531-.621,1.93,1.93,0,0,1-.887-2.239,18.446,18.446,0,0,0,.381-2.614c0-3.109-1.14-4.6-3.543-4.6-3.923,0-5.948,5.6-5.948,13.312,0,3.109.381,6.593,1.518,8.706,1.265,2.862,3.29,4.479,6.326,4.479,3.8,0,6.2-2.114,7.972-6.967Zm7.211-9.081a68.353,68.353,0,0,0-.381-8.71,1.327,1.327,0,0,0-1.518-1.242H43.287V66.538c3.8-.125,8.984-.374,12.653-1.493l.381.249c.253,1.493.506,5.1.634,7.341h.251c1.648-4.355,3.923-7.839,8.606-7.839a4.723,4.723,0,0,1,4.682,4.976c0,4.106-3.164,5.35-4.429,5.35s-2.15-.374-2.531-1.246c-.632-1.367-1.012-2.114-2.275-2.114-1.393,0-2.152,1.244-3.037,3.235a13,13,0,0,0-.634,4.479c0,7.092,0,11.073.128,12.815s.757,2.237,5.818,2.363l-.126,2.116c-3.543-.125-6.707-.251-10.375-.251-3.8,0-6.579.125-9.743.251l.379-2.116c3.037-.125,3.8-.5,3.8-1.742.128-1.742.253-5.1.253-8.957V78.6h-.253Zm42.893-5.723c0-3.734-1.267-5.725-3.8-5.725-2.909,0-4.3,1.618-4.3,4.6a13.663,13.663,0,0,0,.251,2.365,1.759,1.759,0,0,1-.757,1.865,7,7,0,0,1-3.543,1.121c-2.4,0-4.429-1.123-4.429-3.858,0-3.981,5.948-8.46,14.3-8.46,6.83,0,9.867,2.737,11.007,4.479a6.176,6.176,0,0,1,1.012,3.36V90.922c0,2.116.634,2.614,1.393,2.614,1.012,0,2.15-1.618,2.656-4.355l2.152,1c-1.14,5.35-4.429,7.59-8.984,7.59-3.923,0-6.073-1.618-6.707-4.853-3.037,2.986-6.2,4.853-9.488,4.853-5.314,0-8.857-3.483-8.857-9.208,0-3.483,1.518-5.474,4.176-6.593,4.3-1.867,10.754-3.732,13.916-5.971V72.882ZM82.385,86.692c0,2.737,1.14,5.723,3.923,5.723a3.763,3.763,0,0,0,3.543-2.488,9.1,9.1,0,0,0,.379-2.986v-8.46c-1.393.872-3.543,1.867-5.189,2.862C83.522,82.339,82.385,83.581,82.385,86.692Zm25.052-20.775,4.049.123V64.05c.128-5.225,1.393-9.083,4.176-11.82A12.612,12.612,0,0,1,124.9,48.5c5.189,0,7.972,2.488,7.972,5.723,0,2.365-2.024,3.981-4.81,3.981a2.371,2.371,0,0,1-2.531-2.488c0-2.612-.379-4.725-2.275-4.725-1.267,0-2.024,1.119-2.279,3.235-.251,1.991.128,5.723.381,11.569h6.2l-.381,2.488-5.82.374c-.128,2.363-.128,6.469-.128,11.32,0,4.6,0,8.708.128,11.943.128,1.618.381,2.239,1.771,2.365,1.265.123,2.277.247,3.417.247l-.257,2.116c-2.4,0-6.2-.249-9.488-.249-3.417,0-7.466.249-9.743.249l.128-2.116c3.29-.123,3.8-.5,3.923-1.865.251-2.116.251-5.35.251-9.7V68.529l-4.3-.249.379-2.365Z" transform="translate(9.22 9.155)" fill="#fec63e"/><path d="M90.14,43.262l-.255,2.4-7.717.506c0,2.658-.128,6.579-.128,11.893,0,5.567,0,9.363.255,11.64.126,1.646.757,2.4,2.024,2.4,2.656,0,4.3-2.911,4.933-5.567h1.012l.887,2.909c-1.518,3.67-5.316,6.2-10.883,6.2-3.037,0-5.693-1.012-6.958-2.531a6.971,6.971,0,0,1-1.265-4.555c0-5.189.253-16.829.253-22.4L68.25,45.79l.253-2.4h3.8c.128-2.4.128-5.189.128-7.719A34.968,34.968,0,0,0,81.915,32l.759.128q-.332,5.624-.381,11.26H90.14V43.26Z" transform="translate(68.038 31.268)" fill="#fec63e"/><path d="M190,10V114H10V10ZM200,0H0V124H200Z" fill="#fec63e"/></svg>